<svg width="57" height="48" viewBox="0 0 57 48" fill="none" xmlns="http://www.w3.org/2000/svg">
<path d="M55.7752 22.5L50.5706 13.8214C50.6819 13.6072 50.7655 13.3661 50.7655 13.0982C50.7655 12.2946 50.0697 11.625 49.2347 11.5982L43.4735 2.00889C43.5292 1.84819 43.5848 1.68749 43.5848 1.52679C43.5848 0.669697 42.8612 0 41.9983 0C41.4974 0 41.0799 0.214299 40.7737 0.562498H29.6967C29.4184 0.214399 29.0009 0.00010004 28.4999 0.00010004C27.999 0.00010004 27.5815 0.214399 27.3032 0.562598H16.2818C15.9756 0.214399 15.5582 0.00010004 15.0572 0.00010004C14.1944 0.00010004 13.4707 0.669697 13.4707 1.52689C13.4707 1.68759 13.5264 1.87509 13.5821 2.00899L7.76518 11.7323C7.20866 11.9733 6.81891 12.4822 6.81891 13.0983C6.81891 13.1518 6.84675 13.2054 6.84675 13.259L1.30817 22.4733C0.556726 22.6072 0 23.2233 0 23.9733C0 24.6965 0.528775 25.3126 1.25248 25.4733L6.98588 35.0091C6.93019 35.1698 6.90234 35.3037 6.90234 35.4912C6.90234 36.2144 7.43112 36.8305 8.15482 36.9644L13.5264 45.9375C13.4707 46.0982 13.4151 46.2857 13.4151 46.4732C13.4151 47.3303 14.1387 48 15.0016 48C15.5025 48 15.92 47.7857 16.1984 47.4643H27.3033C27.5815 47.7856 28.0269 47.9999 28.4999 47.9999C28.973 47.9999 29.4184 47.7856 29.6967 47.4642H40.8295C41.1077 47.7588 41.5252 47.9463 41.9706 47.9463C42.8612 47.9463 43.557 47.2499 43.557 46.4195C43.557 46.2588 43.5293 46.1249 43.4736 45.991L48.8452 36.9642C49.5688 36.8303 50.0977 36.2143 50.0977 35.4911C50.0977 35.3304 50.0698 35.1697 50.0141 35.009L55.7197 25.4732C56.4433 25.3393 57 24.7232 57 23.9732C56.9998 23.25 56.4709 22.6339 55.7752 22.5ZM14.5283 43.4731L9.99177 35.8929H14.5283V43.4731ZM14.5283 35.0893H9.99177C9.96392 34.9822 9.90823 34.8751 9.85264 34.7679L14.5283 30.0269V35.0893ZM14.5283 28.8482L9.29591 34.1786C9.15678 34.125 9.01755 34.0446 8.87842 34.0179L3.08953 24.375C3.14512 24.2411 3.14512 24.1071 3.14512 23.9732C3.14512 23.8393 3.14512 23.7322 3.11727 23.625L8.51672 14.625C8.79509 14.5982 9.07335 14.5178 9.32386 14.3571L14.5284 19.5536L14.5283 28.8482ZM14.5283 18.616L9.7691 13.875C9.90823 13.6607 9.99177 13.3929 9.99177 13.0983C9.99177 13.0715 9.96392 13.0179 9.96392 12.9911L14.5283 11.4108V18.616ZM14.5283 10.5536L9.99177 12.134L14.5283 4.58038V10.5536ZM48.4554 14.4643L48.539 14.5982L44.8651 31.3125L38.2411 24.5893L48.4276 14.4375L48.4554 14.4643ZM28.8896 33.9107L30.0864 35.0893H27.7207L28.8896 33.9107ZM28.8617 32.7857L20.2061 24.2411L28.4721 15.8036L37.1 24.5625L28.8617 32.7857ZM29.4184 33.375L37.6566 25.1518L44.6702 32.2768L44.058 35.0893H31.1718L29.4184 33.375ZM41.2191 2.83939C41.3304 2.89299 41.4417 2.94659 41.5809 2.97339L47.5926 13.0447V13.0983C47.5926 13.3929 47.676 13.6607 47.8153 13.875L37.6845 24L29.0567 15.2411L41.2191 2.83939ZM40.2729 2.62509L28.4721 14.6518L22.5439 8.62506L39.8274 2.62509H40.2729ZM27.4423 2.62509C27.7206 2.89289 28.0824 3.05359 28.4999 3.05359C28.9175 3.05359 29.2792 2.89289 29.5576 2.62509H37.3505L21.9317 7.98217L16.6436 2.62509H27.4423ZM15.3634 3.18759L15.4747 2.97339C15.5686 2.95029 15.6614 2.92347 15.753 2.89299L21.0689 8.27697L15.3634 10.2591V3.18759ZM15.3634 11.1162L21.6811 8.91976L27.8876 15.2411L19.6216 23.6518L15.3634 19.4465V11.1162ZM15.3634 20.3839L19.1484 24.1607L15.3634 27.9911V20.3839ZM15.3634 29.1697L19.7329 24.7233L28.333 33.3215L26.5517 35.0893H15.3634V29.1697ZM16.087 45.3749C15.92 45.2142 15.7252 45.1071 15.4747 45.0267L15.3634 44.866V35.8929H25.7446L16.2261 45.3749H16.087ZM29.5854 45.3749C29.3071 45.1339 28.9175 44.9464 28.4999 44.9464C28.0824 44.9464 27.6929 45.1339 27.4144 45.3749H17.3949L26.9134 35.8929H30.8934L40.4119 45.3749H29.5854ZM42.0541 44.1963L41.6088 44.9463C41.4697 44.9731 41.3584 45.0266 41.247 45.0802L31.979 35.8928H43.8633L42.0541 44.1963ZM43.3899 41.9731L44.7259 35.8929H47.0081L43.3899 41.9731ZM47.0081 35.0893H44.8929L45.366 32.9733L47.1473 34.7947C47.0917 34.875 47.036 34.9821 47.0081 35.0893ZM53.8826 24.3482L48.1214 34.0179C47.9822 34.0714 47.843 34.125 47.7039 34.2053L45.5608 32.0089L49.1512 15.6161L53.9104 23.5447C53.8826 23.6786 53.8269 23.8125 53.8269 23.9732C53.8269 24.1071 53.8548 24.2143 53.8826 24.3482Z" fill="#27AE60"/>
</svg>
